<?xml version="1.0" standalone="no"?>
<!DOCTYPE svg PUBLIC "-//W3C//DTD SVG 20010904//EN"
 "http://www.w3.org/TR/2001/REC-SVG-20010904/DTD/svg10.dtd">
<svg version="1.0" xmlns="http://www.w3.org/2000/svg"
 width="473.000000pt" height="107.000000pt" viewBox="0 0 473.000000 107.000000"
 preserveAspectRatio="xMidYMid meet">
<metadata>
Created by potrace 1.16, written by Peter Selinger 2001-2019
</metadata>
<g transform="translate(0.000000,107.000000) scale(0.100000,-0.100000)"
fill="#000000" stroke="none">
<path d="M342 973 c-78 -54 -142 -101 -142 -104 0 -4 19 -19 41 -34 l41 -27
92 63 c50 35 114 79 143 99 29 19 52 37 52 40 1 4 -61 49 -79 58 -4 1 -70 -42
-148 -95z"/>
<path d="M535 845 c-77 -53 -141 -99 -143 -104 -1 -4 16 -20 38 -35 l41 -27
144 98 c79 54 144 100 145 103 0 4 -62 49 -80 58 -3 1 -69 -41 -145 -93z"/>
<path d="M1802 868 c-25 -31 -263 -522 -260 -537 2 -9 13 -17 25 -19 19 -3 28
9 60 72 l37 76 162 0 162 0 35 -75 c28 -58 41 -75 57 -75 11 0 23 7 27 16 4
11 -44 117 -128 285 -133 267 -149 291 -177 257z m92 -217 c36 -71 62 -131 59
-135 -8 -8 -248 -8 -256 0 -6 6 119 264 128 264 3 0 34 -58 69 -129z"/>
<path d="M3211 866 c-8 -9 -11 -92 -9 -282 l3 -269 27 -3 28 -3 2 225 3 224
164 -224 c148 -202 167 -225 190 -222 l26 3 3 276 c2 249 1 277 -14 283 -9 4
-23 1 -31 -6 -13 -10 -15 -47 -12 -230 2 -120 2 -218 -1 -218 -3 1 -70 91
-150 202 -189 262 -202 276 -229 244z"/>
<path d="M4356 866 c-21 -8 -54 -25 -73 -39 -170 -121 -138 -421 54 -503 95
-40 240 -9 305 64 127 145 89 380 -76 464 -52 27 -156 34 -210 14z m206 -82
c78 -54 112 -150 89 -248 -16 -71 -54 -121 -114 -151 -85 -42 -166 -29 -234
39 -98 98 -92 270 12 353 46 37 67 43 142 40 51 -2 71 -9 105 -33z"/>
<path d="M20 590 l0 -278 221 -151 c121 -83 224 -151 230 -151 5 0 56 33 114
73 57 39 148 101 201 137 53 36 105 72 115 80 19 14 19 29 17 291 l-3 275
-223 -153 -224 -153 -224 154 -224 155 0 -279z m153 77 c214 -149 287 -197
297 -197 10 0 120 73 312 207 26 18 50 33 53 33 3 0 5 -28 3 -62 l-3 -63 -183
-124 -184 -123 -136 93 c-254 173 -227 147 -230 217 -2 34 0 62 3 62 3 0 33
-19 68 -43z m234 -396 l63 -42 185 125 185 126 0 -62 -1 -63 -51 -35 c-29 -19
-112 -76 -185 -127 l-133 -91 -185 126 -185 126 0 64 0 63 123 -84 c67 -46
150 -103 184 -126z"/>
<path d="M1144 855 c-15 -38 1 -45 111 -45 l105 0 0 -244 c0 -204 2 -246 15
-256 12 -10 18 -10 30 0 13 10 15 52 15 256 l0 243 108 3 c107 3 107 3 107 28
l0 25 -243 3 c-209 2 -243 0 -248 -13z"/>
<path d="M2177 863 c-4 -3 -7 -129 -7 -280 0 -256 1 -273 18 -273 34 0 42 21
42 112 l0 88 83 -1 82 -1 89 -99 c67 -75 94 -99 110 -97 36 5 24 34 -52 117
-61 68 -70 82 -55 87 58 19 77 30 100 60 71 94 23 238 -94 278 -48 16 -302 24
-316 9z m312 -73 c73 -37 92 -138 36 -187 -36 -32 -87 -43 -197 -43 l-98 0 0
125 0 125 110 0 c90 0 118 -4 149 -20z"/>
<path d="M2700 851 c-6 -12 -10 -115 -10 -265 0 -209 2 -247 16 -260 13 -13
46 -16 202 -16 195 0 225 6 206 37 -10 16 -31 18 -188 21 l-176 2 0 95 0 95
173 2 c164 3 172 4 172 23 0 19 -7 20 -150 22 -212 4 -195 -5 -195 108 l0 95
168 0 c177 0 210 7 196 43 -5 15 -26 17 -205 17 -186 0 -199 -1 -209 -19z"/>
<path d="M3694 855 c-15 -38 1 -45 111 -45 l105 0 0 -250 c0 -215 2 -251 15
-256 8 -4 22 -1 30 6 13 10 15 53 15 256 l0 244 104 0 c108 0 124 7 110 45 -5
13 -42 15 -245 15 -204 0 -240 -2 -245 -15z"/>
</g>
</svg>
